<svg xmlns="http://www.w3.org/2000/svg" width="118" height="91" viewBox="0 0 118 91">
    <g fill="none" fill-rule="evenodd" stroke="#4D96FF" stroke-width="4">
        <path d="M28.5 13C13.85 13 2 24.738 2 39.25 2 58.938 25.54 88 28.5 88 31.46 88 55 58.937 55 39.25 55 24.738 43.15 13 28.5 13zm1 35c-5.244 0-9.5-4.256-9.5-9.5s4.256-9.5 9.5-9.5 9.5 4.256 9.5 9.5-4.256 9.5-9.5 9.5zM98.5 2C88.825 2 81 9.668 81 19.15 81 32.013 96.545 51 98.5 51S116 32.012 116 19.15C116 9.669 108.175 2 98.5 2zm.5 23c-3.312 0-6-2.688-6-6s2.688-6 6-6 6 2.688 6 6-2.688 6-6 6z"/>
        <path stroke-dasharray="7" stroke-linecap="round" stroke-linejoin="round" d="M36.438 88.742c9.469.292 17.62-1.558 24.453-5.55 4.003-2.34 1.798-19.809 8.672-23.212 3.238-1.603 11.165-3.099 23.78-4.488"/>
    </g>
</svg>
